# xmcd
#
# Track frame offsets:
#	150
#	21618
#	46658
#	63284
#	83356
#	102152
#	122937
#	143237
#	165052
#	177341
#	200943
#	226752
#	242537
#	266707
#	284875
#	304479
#	328405
#
# Disc length: 4668 seconds
#
# Revision: 1
# Processed by: cddbd v1.5.2PL0 Copyright (c) Steve Scherf et al.
# Submitted via: audiograbber 1.83.01
#
DISCID=f7123a11
DTITLE=Various Artist - Jazz For The Road
DYEAR=2008
DGENRE=Jazz
TTITLE0=Lee Ritenour - Road Song
TTITLE1=Chris Botti - Drive Time
TTITLE2=Roy Ayers - Mystic Voyage
TTITLE3=Quincy Jones - Cast Your Fate To The Wind
TTITLE4=Ramsey Leweis - All Around The World
TTITLE5=Al Jarreau - Feels Like Heaven
TTITLE6=Paul Brown - Wes' Coast Swing
TTITLE7=Wes Montgomery - Bumpin' On Sunset
TTITLE8=Georege Benson - Groovin'
TTITLE9=Jeff Golub - Cadillac JAck
TTITLE10=Larry Carlton - High Steppin'
TTITLE11=Kenny Burrell - See See Rider
TTITLE12=Spyro Gyra - Bright Lights
TTITLE13=Will Downing - Brooklyn Breezes
TTITLE14=Gerald Albright - Ain't No Stoppin'
TTITLE15=The Rippingtons - Miles away
TTITLE16=Joanne Grauer feat. Lorraine Feather - See You later
EXTD=YEAR: 2008
EXTT0=
EXTT1=
EXTT2=
EXTT3=
EXTT4=
EXTT5=
EXTT6=
EXTT7=
EXTT8=
EXTT9=
EXTT10=
EXTT11=
EXTT12=
EXTT13=
EXTT14=
EXTT15=
EXTT16=
PLAYORDER=
